<?xml version="1.0" standalone="no"?>
<!DOCTYPE svg PUBLIC "-//W3C//DTD SVG 20010904//EN"
 "http://www.w3.org/TR/2001/REC-SVG-20010904/DTD/svg10.dtd">
<svg version="1.0" xmlns="http://www.w3.org/2000/svg"
 width="300.000000pt" height="300.000000pt" viewBox="0 0 300.000000 300.000000"
 preserveAspectRatio="xMidYMid meet">
<metadata>
Created by potrace 1.10, written by Peter Selinger 2001-2011
</metadata>
<g transform="translate(0.000000,300.000000) scale(0.100000,-0.100000)"
fill="#000000" stroke="none">
<path d="M1280 2835 c-423 -71 -785 -335 -978 -712 -90 -177 -137 -346 -149
-538 l-6 -105 39 13 c21 8 55 17 75 21 l36 6 7 78 c20 221 87 410 211 597 197
294 527 497 865 531 65 6 70 5 94 -19 32 -32 33 -71 4 -100 -18 -18 -43 -26
-116 -35 -486 -65 -868 -465 -908 -954 l-7 -80 69 6 c123 12 426 26 556 26
l128 0 29 59 c55 109 154 171 271 171 117 0 216 -62 271 -171 l29 -59 139 0
c352 0 788 -41 894 -85 15 -6 17 0 17 51 0 143 -45 346 -111 498 -182 424
-570 728 -1021 801 -111 18 -333 18 -438 0z"/>
<path d="M770 1409 c-310 -16 -574 -49 -602 -77 -13 -13 13 -145 48 -252 138
-412 456 -729 867 -865 262 -86 561 -88 825 -4 403 129 720 436 862 834 25 73
69 245 70 277 0 14 -105 38 -225 53 -131 16 -358 30 -642 41 l-181 6 -23 -51
c-27 -64 -102 -133 -166 -155 -145 -50 -298 12 -369 149 l-29 55 -135 -2 c-74
0 -209 -5 -300 -9z m355 -158 c11 -35 123 -131 192 -164 64 -30 74 -32 184
-32 113 0 117 1 190 37 71 35 157 110 186 162 10 18 20 18 258 7 261 -12 488
-29 517 -40 16 -6 14 -14 -12 -93 -133 -395 -448 -690 -850 -795 -118 -31
-335 -42 -460 -24 -336 49 -638 240 -826 521 -71 107 -104 176 -145 300 l-28
85 32 7 c75 16 455 42 679 46 67 2 77 0 83 -17z"/>
</g>
</svg>
